# xmcd CD database file
#
# Track frame offsets:
#	150
#	6605
#	23084
#	49010
#	69092
#	91397
#	108780
#	129708
#	148854
#	171904
#
# Disc length: 2550 seconds
#
# Revision: 0
# Processed by: cddbd v1.5.2PL0 Copyright (c) Steve Scherf et al.
# Submitted via: CDex 1.70beta2
#
DISCID=8409f40a
DTITLE=Son Trinidad - El Son de ...
DYEAR=2005
DGENRE=Salsa
TTITLE0=El Son de Son Trinidad
TTITLE1=Dis-moi
TTITLE2=Como suena el tres
TTITLE3=Cuando tu no estas
TTITLE4=Una mirada
TTITLE5=Paris
TTITLE6=El sueno de un guajiro
TTITLE7=Como me quiere papi
TTITLE8=Enamorado de ti
TTITLE9=El Changui y el Son
EXTD=YEAR: 2005
EXTT0=
EXTT1=
EXTT2=
EXTT3=
EXTT4=
EXTT5=
EXTT6=
EXTT7=
EXTT8=
EXTT9=
PLAYORDER=
